<svg width="790" height="733" viewBox="0 0 790 733" fill="none" xmlns="http://www.w3.org/2000/svg">
<mask id="path-1-inside-1" fill="white">
<path fill-rule="evenodd" clip-rule="evenodd" d="M619.377 153.435C615.837 148.506 609.287 146.806 603.859 149.636C583.048 159.245 559.266 152.842 546.118 134.534C532.97 116.225 533.996 90.9392 549.244 73.5848C553.155 68.6416 553.637 61.8917 550.097 56.9624L524.307 21.0491C520.261 15.4157 511.799 14.0212 506.174 18.061L504.767 19.071C461.503 59.7467 454.971 126.343 489.863 174.931C524.251 222.816 589.443 237.905 640.799 208.496C646.93 205.16 649.521 196.895 646.179 190.757L645.168 189.349L619.377 153.435ZM622.413 509.543C624.749 504.432 630.397 501.717 636.169 502.589C657.13 506.873 677.598 496.808 686.61 477.092C695.287 458.106 689.505 436.042 672.215 423.726C667.444 420.662 666.135 413.884 668.137 409.503L685.159 372.262C688.163 365.69 695.27 363.642 701.103 366.308L701.832 366.641C749.08 394.416 766.91 453.766 744.215 503.421C721.185 553.806 664.639 579.161 612.051 563.07C605.884 561.134 602.053 554.086 603.994 547.911L604.662 546.451L622.413 509.543ZM405.551 725.571L435.256 660.582C435.394 660.279 435.657 660.034 435.966 659.747C436.402 659.34 436.929 658.85 437.32 657.994L499.399 522.174C501.401 517.792 505.653 516.204 510.028 518.204L553.383 537.138C559.217 539.804 566.657 537.025 569.327 531.184L586.015 494.673C588.685 488.831 585.917 481.386 580.084 478.72L540.708 460.723C534.875 458.057 531.773 451.342 534.443 445.501L561.144 387.083C563.814 381.241 571.255 378.463 577.088 381.129L616.464 399.126C622.297 401.793 629.738 399.014 632.408 393.172L649.096 356.661C651.766 350.82 648.998 343.375 643.164 340.709L544.392 296.446C538.558 293.78 531.118 296.558 528.448 302.4L506.753 349.864L502.748 358.627L451.372 336.027C445.539 333.361 438.098 336.14 435.428 341.981L418.74 378.492C416.07 384.334 418.838 391.778 425.005 393.715L464.381 411.712C470.214 414.378 472.982 421.823 470.312 427.664L443.611 486.082C440.941 491.923 433.501 494.702 427.667 492.036L388.292 474.039C382.458 471.372 375.018 474.151 372.348 479.993L355.66 516.503C352.99 522.345 355.758 529.79 361.925 531.726L405.28 550.659C408.926 552.326 411.237 556.913 409.234 561.294L347.155 697.115C344.485 702.957 347.253 710.401 353.087 713.067L389.879 729.001C395.44 734.191 402.881 731.413 405.551 725.571ZM336.284 464.392C338.62 459.28 336.977 453.233 332.207 450.169C314.917 437.853 309.134 415.789 317.812 396.803C326.49 377.818 347.291 367.022 368.252 371.306C374.024 372.178 379.673 369.464 382.009 364.352L399.031 327.111C401.701 321.269 398.933 313.825 393.099 311.158L391.641 310.492C339.053 294.401 282.507 319.756 259.478 370.141C236.782 419.796 254.612 479.146 301.86 506.921C307.36 510.317 315.196 508.602 318.595 503.093L319.262 501.633L336.284 464.392ZM7.3394 647.945C1.13283 650.747 -1.70001 658.052 1.05403 664.153L17.7195 701.074C20.4736 707.176 27.8259 709.883 34.0325 707.082L82.7302 685.1L142.886 657.947L191.743 635.894C198.215 632.408 201.225 624.646 198.737 617.86L177.217 569.759L150.523 510.623L128.844 462.594C126.09 456.493 118.738 453.785 112.531 456.587L74.9735 473.54C68.767 476.341 65.9341 483.646 68.6882 489.747L90.3674 537.776L117.06 596.913L117.625 598.164L116.352 598.739L56.1963 625.892L7.3394 647.945Z"/>
</mask>
<path d="M603.859 149.636L604.698 151.452L604.741 151.432L604.784 151.41L603.859 149.636ZM619.377 153.435L621.002 152.269L621.002 152.269L619.377 153.435ZM546.118 134.534L547.742 133.367L547.742 133.367L546.118 134.534ZM549.244 73.5848L550.747 74.9049L550.781 74.8662L550.813 74.8257L549.244 73.5848ZM550.097 56.9624L548.473 58.129L548.473 58.129L550.097 56.9624ZM524.307 21.0491L522.682 22.2157L522.682 22.2158L524.307 21.0491ZM506.174 18.061L507.34 19.6855L507.34 19.6855L506.174 18.061ZM504.767 19.071L503.601 17.4464L503.494 17.5234L503.398 17.6138L504.767 19.071ZM489.863 174.931L491.488 173.765L491.488 173.765L489.863 174.931ZM640.799 208.496L639.843 206.739L639.824 206.749L639.805 206.76L640.799 208.496ZM646.179 190.757L647.935 189.801L647.876 189.691L647.803 189.59L646.179 190.757ZM645.168 189.349L643.543 190.515L643.543 190.515L645.168 189.349ZM636.169 502.589L636.57 500.63L636.519 500.619L636.468 500.612L636.169 502.589ZM622.413 509.543L624.215 510.41L624.223 510.392L624.232 510.374L622.413 509.543ZM686.61 477.092L688.429 477.923L688.429 477.923L686.61 477.092ZM672.215 423.726L673.375 422.097L673.336 422.069L673.296 422.043L672.215 423.726ZM668.137 409.503L669.956 410.335L669.956 410.335L668.137 409.503ZM685.159 372.262L683.34 371.431L683.34 371.431L685.159 372.262ZM701.103 366.308L700.272 368.127L700.272 368.127L701.103 366.308ZM701.832 366.641L702.846 364.917L702.757 364.865L702.664 364.822L701.832 366.641ZM744.215 503.421L742.396 502.59L742.396 502.59L744.215 503.421ZM612.051 563.07L611.452 564.978L611.459 564.98L611.466 564.982L612.051 563.07ZM603.994 547.911L602.175 547.08L602.124 547.193L602.086 547.312L603.994 547.911ZM604.662 546.451L602.859 545.584L602.851 545.602L602.843 545.62L604.662 546.451ZM435.256 660.582L437.075 661.413L437.075 661.413L435.256 660.582ZM405.551 725.571L403.732 724.74L403.732 724.74L405.551 725.571ZM435.966 659.747L434.603 658.283L434.602 658.283L435.966 659.747ZM437.32 657.994L439.139 658.826L439.139 658.826L437.32 657.994ZM499.399 522.174L497.58 521.342L497.58 521.342L499.399 522.174ZM510.028 518.204L509.197 520.023L509.212 520.03L509.228 520.037L510.028 518.204ZM553.383 537.138L554.215 535.319L554.199 535.312L554.184 535.305L553.383 537.138ZM569.327 531.184L567.508 530.352L567.508 530.352L569.327 531.184ZM586.015 494.673L587.834 495.504L587.834 495.504L586.015 494.673ZM580.084 478.72L579.253 480.539L579.253 480.539L580.084 478.72ZM540.708 460.723L541.54 458.904L541.54 458.904L540.708 460.723ZM534.443 445.501L532.624 444.669L532.624 444.669L534.443 445.501ZM561.144 387.083L562.963 387.915L562.963 387.915L561.144 387.083ZM577.088 381.129L577.919 379.31L577.919 379.31L577.088 381.129ZM616.464 399.126L615.632 400.945L615.632 400.945L616.464 399.126ZM632.408 393.172L630.589 392.341L630.589 392.341L632.408 393.172ZM649.096 356.661L650.915 357.493L650.915 357.493L649.096 356.661ZM643.164 340.709L643.996 338.89L643.989 338.887L643.982 338.884L643.164 340.709ZM544.392 296.446L543.56 298.265L543.567 298.268L543.574 298.271L544.392 296.446ZM528.448 302.4L530.267 303.231L530.267 303.231L528.448 302.4ZM506.753 349.864L504.934 349.033L504.934 349.033L506.753 349.864ZM502.748 358.627L501.943 360.458L503.748 361.251L504.567 359.458L502.748 358.627ZM451.372 336.027L450.541 337.846L450.554 337.852L450.567 337.858L451.372 336.027ZM435.428 341.981L433.609 341.15L433.609 341.15L435.428 341.981ZM418.74 378.492L420.559 379.324L420.559 379.324L418.74 378.492ZM425.005 393.715L425.836 391.896L425.723 391.844L425.604 391.806L425.005 393.715ZM464.381 411.712L465.212 409.893L465.212 409.893L464.381 411.712ZM470.312 427.664L472.131 428.496L472.131 428.496L470.312 427.664ZM443.611 486.082L441.792 485.25L441.792 485.25L443.611 486.082ZM427.667 492.036L426.836 493.855L426.836 493.855L427.667 492.036ZM388.292 474.039L387.46 475.858L387.46 475.858L388.292 474.039ZM372.348 479.993L370.529 479.161L370.529 479.161L372.348 479.993ZM355.66 516.503L357.479 517.335L357.479 517.335L355.66 516.503ZM361.925 531.726L362.725 529.893L362.627 529.85L362.524 529.818L361.925 531.726ZM405.28 550.659L406.111 548.84L406.096 548.833L406.08 548.826L405.28 550.659ZM409.234 561.294L411.053 562.126L411.053 562.126L409.234 561.294ZM347.155 697.115L348.974 697.946L348.974 697.946L347.155 697.115ZM353.087 713.067L352.255 714.886L352.273 714.895L352.292 714.903L353.087 713.067ZM389.879 729.001L391.244 727.539L390.991 727.303L390.674 727.166L389.879 729.001ZM332.207 450.169L331.046 451.798L331.085 451.826L331.126 451.852L332.207 450.169ZM336.284 464.392L334.465 463.561L334.465 463.561L336.284 464.392ZM317.812 396.803L315.993 395.972L315.993 395.972L317.812 396.803ZM368.252 371.306L367.852 373.265L367.903 373.276L367.954 373.283L368.252 371.306ZM382.009 364.352L380.19 363.521L380.19 363.521L382.009 364.352ZM399.031 327.111L400.85 327.942L400.85 327.942L399.031 327.111ZM393.099 311.158L393.931 309.339L393.931 309.339L393.099 311.158ZM391.641 310.492L392.472 308.673L392.352 308.618L392.226 308.579L391.641 310.492ZM259.478 370.141L257.659 369.309L257.659 369.309L259.478 370.141ZM301.86 506.921L302.911 505.219L302.892 505.207L302.874 505.196L301.86 506.921ZM318.595 503.093L320.297 504.144L320.362 504.038L320.414 503.925L318.595 503.093ZM319.262 501.633L317.443 500.802L317.443 500.802L319.262 501.633ZM1.05403 664.153L-0.768867 664.976L-0.768867 664.976L1.05403 664.153ZM7.3394 647.945L6.51658 646.122L6.51657 646.122L7.3394 647.945ZM17.7195 701.074L19.5424 700.251L19.5424 700.251L17.7195 701.074ZM34.0325 707.082L33.2096 705.259L33.2096 705.259L34.0325 707.082ZM82.7302 685.1L83.553 686.923L83.553 686.923L82.7302 685.1ZM142.886 657.947L143.709 659.77L143.709 659.77L142.886 657.947ZM191.743 635.894L192.566 637.717L192.63 637.688L192.692 637.655L191.743 635.894ZM198.737 617.86L200.614 617.171L200.591 617.106L200.562 617.043L198.737 617.86ZM177.217 569.759L179.042 568.942L179.039 568.936L177.217 569.759ZM150.523 510.623L148.701 511.446L148.701 511.446L150.523 510.623ZM128.844 462.594L127.021 463.417L127.021 463.417L128.844 462.594ZM112.531 456.587L111.708 454.764L111.708 454.764L112.531 456.587ZM74.9735 473.54L75.7964 475.362L75.7964 475.362L74.9735 473.54ZM68.6882 489.747L66.8653 490.57L66.8653 490.57L68.6882 489.747ZM90.3674 537.776L88.5445 538.599L88.5445 538.599L90.3674 537.776ZM117.06 596.913L115.238 597.735L115.238 597.735L117.06 596.913ZM117.625 598.164L118.448 599.987L120.271 599.164L119.448 597.341L117.625 598.164ZM116.352 598.739L117.175 600.562L117.175 600.562L116.352 598.739ZM56.1963 625.892L57.0191 627.715L57.0191 627.715L56.1963 625.892ZM604.784 151.41C609.297 149.056 614.771 150.451 617.753 154.602L621.002 152.269C616.903 146.562 609.278 144.555 602.935 147.863L604.784 151.41ZM544.493 135.7C558.2 154.787 583.016 161.463 604.698 151.452L603.021 147.821C583.081 157.027 560.331 150.898 547.742 133.367L544.493 135.7ZM547.742 72.2647C531.877 90.3209 530.804 116.638 544.493 135.7L547.742 133.367C535.136 115.812 536.115 91.5575 550.747 74.9049L547.742 72.2647ZM548.473 58.129C551.428 62.2437 551.105 68.0104 547.676 72.3439L550.813 74.8257C555.206 69.2729 555.847 61.5397 551.722 55.7958L548.473 58.129ZM522.682 22.2158L548.473 58.129L551.722 55.7958L525.931 19.8825L522.682 22.2158ZM507.34 19.6855C512.066 16.2916 519.28 17.4773 522.682 22.2157L525.931 19.8825C521.243 13.3541 511.532 11.7509 505.007 16.4365L507.34 19.6855ZM505.934 20.6955L507.34 19.6855L505.007 16.4365L503.601 17.4464L505.934 20.6955ZM491.488 173.765C457.179 125.989 463.605 60.5152 506.137 20.5281L503.398 17.6138C459.4 58.9782 452.762 126.697 488.239 176.098L491.488 173.765ZM639.805 206.76C589.362 235.646 525.293 220.838 491.488 173.765L488.239 176.098C523.208 224.793 589.524 240.163 641.793 210.231L639.805 206.76ZM644.422 191.713C647.218 196.847 645.039 203.912 639.843 206.739L641.755 210.253C648.821 206.408 651.825 196.944 647.935 189.801L644.422 191.713ZM643.543 190.515L644.554 191.924L647.803 189.59L646.792 188.182L643.543 190.515ZM617.753 154.602L643.543 190.515L646.792 188.182L621.002 152.269L617.753 154.602ZM636.468 500.612C629.928 499.623 623.347 502.688 620.594 508.712L624.232 510.374C626.151 506.175 630.867 503.81 635.87 504.567L636.468 500.612ZM684.791 476.26C676.174 495.113 656.636 504.731 636.57 500.63L635.769 504.549C657.624 509.015 679.023 498.502 688.429 477.923L684.791 476.26ZM671.055 425.355C687.563 437.114 693.07 458.146 684.791 476.26L688.429 477.923C697.505 458.066 691.447 434.97 673.375 422.097L671.055 425.355ZM666.318 408.672C665.1 411.338 664.929 414.605 665.699 417.606C666.473 420.622 668.246 423.554 671.134 425.409L673.296 422.043C671.414 420.834 670.147 418.846 669.574 416.612C668.996 414.362 669.173 412.049 669.956 410.335L666.318 408.672ZM683.34 371.431L666.318 408.672L669.956 410.335L686.978 373.093L683.34 371.431ZM701.935 364.489C695.175 361.399 686.838 363.778 683.34 371.431L686.978 373.093C689.488 367.603 695.365 365.884 700.272 368.127L701.935 364.489ZM702.664 364.822L701.935 364.489L700.272 368.127L701.001 368.46L702.664 364.822ZM746.034 504.252C769.144 453.69 751 393.225 702.846 364.917L700.819 368.365C747.16 395.607 764.676 453.843 742.396 502.59L746.034 504.252ZM611.466 564.982C665.015 581.368 722.588 555.548 746.034 504.252L742.396 502.59C719.782 552.065 664.263 576.955 612.637 561.158L611.466 564.982ZM602.086 547.312C599.802 554.578 604.269 562.723 611.452 564.978L612.65 561.162C607.499 559.545 604.304 553.595 605.902 548.511L602.086 547.312ZM602.843 545.62L602.175 547.08L605.813 548.743L606.481 547.282L602.843 545.62ZM620.61 508.676L602.859 545.584L606.464 547.318L624.215 510.41L620.61 508.676ZM433.437 659.75L403.732 724.74L407.37 726.403L437.075 661.413L433.437 659.75ZM434.602 658.283C434.377 658.493 433.773 659.015 433.437 659.75L437.075 661.413C437.03 661.512 436.99 661.545 437.033 661.497C437.053 661.475 437.085 661.441 437.137 661.391C437.19 661.34 437.249 661.285 437.329 661.21L434.602 658.283ZM435.501 657.163C435.286 657.632 435.019 657.895 434.603 658.283L437.329 661.21C437.785 660.785 438.571 660.067 439.139 658.826L435.501 657.163ZM497.58 521.342L435.501 657.163L439.139 658.826L501.218 523.005L497.58 521.342ZM510.86 516.385C508.258 515.196 505.548 515.017 503.124 515.922C500.7 516.827 498.77 518.739 497.58 521.342L501.218 523.005C502.03 521.227 503.227 520.154 504.523 519.67C505.82 519.186 507.423 519.213 509.197 520.023L510.86 516.385ZM554.184 535.305L510.829 516.371L509.228 520.037L552.583 538.97L554.184 535.305ZM567.508 530.352C565.296 535.192 559.041 537.525 554.215 535.319L552.552 538.957C559.392 542.083 568.018 538.859 571.146 532.015L567.508 530.352ZM584.196 493.841L567.508 530.352L571.146 532.015L587.834 495.504L584.196 493.841ZM579.253 480.539C584.079 482.745 586.408 489.002 584.196 493.841L587.834 495.504C590.962 488.66 587.756 480.028 580.915 476.901L579.253 480.539ZM539.877 462.542L579.253 480.539L580.915 476.901L541.54 458.904L539.877 462.542ZM532.624 444.669C529.423 451.672 533.203 459.492 539.877 462.542L541.54 458.904C536.547 456.622 534.123 451.012 536.262 446.332L532.624 444.669ZM559.325 386.252L532.624 444.669L536.262 446.332L562.963 387.915L559.325 386.252ZM577.919 379.31C571.079 376.184 562.453 379.408 559.325 386.252L562.963 387.915C565.175 383.075 571.43 380.742 576.257 382.948L577.919 379.31ZM617.295 397.307L577.919 379.31L576.257 382.948L615.632 400.945L617.295 397.307ZM630.589 392.341C628.377 397.181 622.121 399.513 617.295 397.307L615.632 400.945C622.473 404.072 631.099 400.848 634.227 394.004L630.589 392.341ZM647.277 355.83L630.589 392.341L634.227 394.004L650.915 357.493L647.277 355.83ZM642.333 342.528C647.159 344.734 649.489 350.99 647.277 355.83L650.915 357.493C654.043 350.649 650.836 342.016 643.996 338.89L642.333 342.528ZM543.574 298.271L642.346 342.534L643.982 338.884L545.209 294.621L543.574 298.271ZM530.267 303.231C532.479 298.392 538.734 296.059 543.56 298.265L545.223 294.627C538.383 291.5 529.757 294.725 526.629 301.569L530.267 303.231ZM508.572 350.696L530.267 303.231L526.629 301.569L504.934 349.033L508.572 350.696ZM504.567 359.458L508.572 350.696L504.934 349.033L500.929 357.795L504.567 359.458ZM450.567 337.858L501.943 360.458L503.553 356.796L452.177 334.197L450.567 337.858ZM437.247 342.813C439.459 337.973 445.714 335.64 450.541 337.846L452.203 334.208C445.363 331.082 436.737 334.306 433.609 341.15L437.247 342.813ZM420.559 379.324L437.247 342.813L433.609 341.15L416.921 377.661L420.559 379.324ZM425.604 391.806C420.735 390.278 418.321 384.219 420.559 379.324L416.921 377.661C413.818 384.449 416.941 393.279 424.406 395.623L425.604 391.806ZM465.212 409.893L425.836 391.896L424.174 395.534L463.549 413.531L465.212 409.893ZM472.131 428.496C475.259 421.652 472.053 413.019 465.212 409.893L463.549 413.531C468.376 415.737 470.705 421.993 468.493 426.833L472.131 428.496ZM445.43 486.913L472.131 428.496L468.493 426.833L441.792 485.25L445.43 486.913ZM426.836 493.855C433.676 496.981 442.302 493.757 445.43 486.913L441.792 485.25C439.58 490.09 433.325 492.423 428.499 490.217L426.836 493.855ZM387.46 475.858L426.836 493.855L428.499 490.217L389.123 472.22L387.46 475.858ZM374.167 480.824C376.379 475.984 382.634 473.652 387.46 475.858L389.123 472.22C382.283 469.093 373.657 472.317 370.529 479.161L374.167 480.824ZM357.479 517.335L374.167 480.824L370.529 479.161L353.841 515.672L357.479 517.335ZM362.524 529.818C357.655 528.289 355.241 522.23 357.479 517.335L353.841 515.672C350.738 522.46 353.861 531.29 361.326 533.634L362.524 529.818ZM406.08 548.826L362.725 529.893L361.124 533.559L404.48 552.492L406.08 548.826ZM411.053 562.126C413.567 556.626 410.644 550.912 406.111 548.84L404.449 552.478C407.208 553.739 408.907 557.2 407.415 560.463L411.053 562.126ZM348.974 697.946L411.053 562.126L407.415 560.463L345.336 696.283L348.974 697.946ZM353.918 711.248C349.092 709.042 346.762 702.786 348.974 697.946L345.336 696.283C342.208 703.127 345.415 711.76 352.255 714.886L353.918 711.248ZM390.674 727.166L353.881 711.232L352.292 714.903L389.084 730.837L390.674 727.166ZM403.732 724.74C402.633 727.145 400.567 728.878 398.28 729.492C396.056 730.089 393.518 729.662 391.244 727.539L388.515 730.463C391.801 733.531 395.764 734.309 399.318 733.355C402.81 732.417 405.799 729.839 407.37 726.402L403.732 724.74ZM331.126 451.852C335.028 454.358 336.403 459.32 334.465 463.561L338.103 465.223C340.838 459.241 338.926 452.107 333.287 448.487L331.126 451.852ZM315.993 395.972C306.917 415.829 312.975 438.925 331.046 451.798L333.367 448.541C316.859 436.781 311.352 415.749 319.631 397.635L315.993 395.972ZM368.653 369.346C346.776 364.875 325.056 376.142 315.993 395.972L319.631 397.635C327.923 379.493 347.806 369.168 367.852 373.265L368.653 369.346ZM380.19 363.521C378.271 367.72 373.555 370.085 368.551 369.328L367.954 373.283C374.494 374.272 381.075 371.207 383.828 365.183L380.19 363.521ZM397.212 326.279L380.19 363.521L383.828 365.183L400.85 327.942L397.212 326.279ZM392.268 312.977C397.094 315.183 399.424 321.44 397.212 326.279L400.85 327.942C403.978 321.098 400.771 312.466 393.931 309.339L392.268 312.977ZM390.81 312.311L392.268 312.977L393.931 309.339L392.472 308.673L390.81 312.311ZM261.297 370.972C283.91 321.497 339.429 296.607 391.056 312.404L392.226 308.579C338.677 292.194 281.104 318.014 257.659 369.309L261.297 370.972ZM302.874 505.196C256.533 477.955 239.016 419.719 261.297 370.972L257.659 369.309C234.548 419.872 252.692 480.337 300.847 508.645L302.874 505.196ZM316.893 502.043C314.095 506.578 307.504 508.056 302.911 505.219L300.809 508.622C307.215 512.578 316.297 510.626 320.297 504.144L316.893 502.043ZM317.443 500.802L316.776 502.262L320.414 503.925L321.081 502.464L317.443 500.802ZM334.465 463.561L317.443 500.802L321.081 502.464L338.103 465.223L334.465 463.561ZM2.87693 663.33C0.590526 658.265 2.9329 652.128 8.16224 649.768L6.51657 646.122C-0.667243 649.365 -3.99055 657.838 -0.768867 664.976L2.87693 663.33ZM19.5424 700.251L2.87693 663.33L-0.768867 664.976L15.8966 701.897L19.5424 700.251ZM33.2096 705.259C27.9803 707.619 21.8288 705.317 19.5424 700.251L15.8966 701.897C19.1183 709.034 27.6714 712.147 34.8553 708.904L33.2096 705.259ZM81.9074 683.277L33.2096 705.259L34.8553 708.904L83.553 686.923L81.9074 683.277ZM142.063 656.124L81.9074 683.277L83.553 686.923L143.709 659.77L142.063 656.124ZM190.92 634.071L142.063 656.124L143.709 659.77L192.566 637.717L190.92 634.071ZM196.859 618.548C198.996 624.377 196.414 631.106 190.795 634.133L192.692 637.655C200.017 633.709 203.454 624.916 200.614 617.171L196.859 618.548ZM175.391 570.576L196.911 618.677L200.562 617.043L179.042 568.943L175.391 570.576ZM148.701 511.446L175.394 570.582L179.039 568.936L152.346 509.8L148.701 511.446ZM127.021 463.417L148.701 511.446L152.346 509.8L130.667 461.771L127.021 463.417ZM113.354 458.41C118.583 456.049 124.735 458.352 127.021 463.417L130.667 461.771C127.445 454.634 118.892 451.521 111.708 454.764L113.354 458.41ZM75.7964 475.362L113.354 458.41L111.708 454.764L74.1507 471.717L75.7964 475.362ZM70.5111 488.925C68.2247 483.859 70.567 477.723 75.7964 475.362L74.1507 471.717C66.9669 474.959 63.6436 483.433 66.8653 490.57L70.5111 488.925ZM92.1903 536.953L70.5111 488.925L66.8653 490.57L88.5445 538.599L92.1903 536.953ZM118.883 596.09L92.1903 536.953L88.5445 538.599L115.238 597.735L118.883 596.09ZM119.448 597.341L118.883 596.09L115.238 597.735L115.803 598.987L119.448 597.341ZM117.175 600.562L118.448 599.987L116.803 596.341L115.529 596.916L117.175 600.562ZM57.0191 627.715L117.175 600.562L115.529 596.916L55.3734 624.069L57.0191 627.715ZM8.16222 649.768L57.0191 627.715L55.3734 624.069L6.51658 646.122L8.16222 649.768Z" fill="#08090A" mask="url(#path-1-inside-1)"/>
<mask id="path-3-inside-2" fill="white">
<path fill-rule="evenodd" clip-rule="evenodd" d="M650.288 137.692C646.748 132.763 640.198 131.063 634.77 133.893C613.959 143.502 590.176 137.099 577.028 118.79C563.88 100.482 564.907 75.196 580.155 57.8417C584.066 52.8985 584.548 46.1485 581.008 41.2192L555.218 5.30598C551.172 -0.327472 542.71 -1.72194 537.084 2.31784L535.678 3.3278C492.413 44.0036 485.881 110.6 520.774 159.188C555.161 207.073 620.354 222.162 671.71 192.753C677.841 189.417 680.432 181.152 677.09 175.014L676.078 173.605L650.288 137.692ZM657.412 494.286C659.749 489.175 665.397 486.46 671.169 487.332C692.13 491.616 712.598 481.551 721.609 461.835C730.287 442.849 724.504 420.785 707.215 408.469C702.444 405.406 701.135 398.628 703.137 394.246L720.159 357.005C723.163 350.433 730.269 348.385 736.103 351.051L736.832 351.385C784.08 379.159 801.91 438.509 779.214 488.164C756.185 538.549 699.639 563.905 647.051 547.813C640.884 545.877 637.053 538.83 638.994 532.655L639.661 531.194L657.412 494.286ZM440.551 710.314L470.255 645.325C470.393 645.022 470.657 644.777 470.965 644.49C471.402 644.083 471.928 643.593 472.319 642.737L534.398 506.917C536.401 502.535 540.653 500.948 545.028 502.947L588.383 521.881C594.216 524.547 601.657 521.769 604.327 515.927L621.015 479.416C623.685 473.574 620.917 466.13 615.084 463.463L575.708 445.466C569.875 442.8 566.773 436.086 569.443 430.244L596.144 371.826C598.814 365.985 606.254 363.206 612.088 365.872L651.463 383.87C657.297 386.536 664.737 383.757 667.407 377.916L684.095 341.405C686.765 335.563 683.997 328.118 678.164 325.452L579.391 281.189C573.558 278.523 566.117 281.302 563.447 287.143L541.753 334.607L537.748 343.37L486.372 320.771C480.538 318.104 473.098 320.883 470.428 326.725L453.74 363.235C451.07 369.077 453.838 376.522 460.005 378.458L499.38 396.455C505.214 399.121 507.982 406.566 505.312 412.408L478.611 470.825C475.941 476.667 468.5 479.445 462.667 476.779L423.291 458.782C417.458 456.116 410.017 458.894 407.347 464.736L390.659 501.247C387.989 507.088 390.757 514.533 396.924 516.469L440.28 535.402C443.926 537.069 446.236 541.656 444.234 546.037L382.155 681.858C379.485 687.7 382.253 695.144 388.086 697.811L424.879 713.745C430.44 718.935 437.881 716.156 440.551 710.314ZM371.284 449.135C373.62 444.024 371.977 437.976 367.206 434.913C349.916 422.596 344.134 400.532 352.812 381.547C361.489 362.561 382.291 351.765 403.252 356.049C409.024 356.922 414.672 354.207 417.009 349.095L434.03 311.854C436.7 306.012 433.932 298.568 428.099 295.902L426.641 295.235C374.053 279.144 317.507 304.499 294.477 354.884C271.782 404.539 289.612 463.889 336.86 491.664C342.359 495.06 350.195 493.345 353.595 487.837L354.262 486.376L371.284 449.135ZM38.25 632.202C32.0435 635.004 29.2106 642.308 31.9647 648.41L48.6302 685.331C51.3842 691.432 58.7365 694.14 64.9431 691.338L113.641 669.357L173.797 642.204L222.654 620.151C229.126 616.664 232.136 608.903 229.647 602.117L208.127 554.016L181.434 494.88L159.755 446.851C157.001 440.75 149.648 438.042 143.442 440.844L105.884 457.796C99.6776 460.598 96.8448 467.903 99.5988 474.004L121.278 522.033L147.971 581.169L148.536 582.421L147.263 582.996L87.1069 610.149L38.25 632.202Z"/>
</mask>
<path fill-rule="evenodd" clip-rule="evenodd" d="M650.288 137.692C646.748 132.763 640.198 131.063 634.77 133.893C613.959 143.502 590.176 137.099 577.028 118.79C563.88 100.482 564.907 75.196 580.155 57.8417C584.066 52.8985 584.548 46.1485 581.008 41.2192L555.218 5.30598C551.172 -0.327472 542.71 -1.72194 537.084 2.31784L535.678 3.3278C492.413 44.0036 485.881 110.6 520.774 159.188C555.161 207.073 620.354 222.162 671.71 192.753C677.841 189.417 680.432 181.152 677.09 175.014L676.078 173.605L650.288 137.692ZM657.412 494.286C659.749 489.175 665.397 486.46 671.169 487.332C692.13 491.616 712.598 481.551 721.609 461.835C730.287 442.849 724.504 420.785 707.215 408.469C702.444 405.406 701.135 398.628 703.137 394.246L720.159 357.005C723.163 350.433 730.269 348.385 736.103 351.051L736.832 351.385C784.08 379.159 801.91 438.509 779.214 488.164C756.185 538.549 699.639 563.905 647.051 547.813C640.884 545.877 637.053 538.83 638.994 532.655L639.661 531.194L657.412 494.286ZM440.551 710.314L470.255 645.325C470.393 645.022 470.657 644.777 470.965 644.49C471.402 644.083 471.928 643.593 472.319 642.737L534.398 506.917C536.401 502.535 540.653 500.948 545.028 502.947L588.383 521.881C594.216 524.547 601.657 521.769 604.327 515.927L621.015 479.416C623.685 473.574 620.917 466.13 615.084 463.463L575.708 445.466C569.875 442.8 566.773 436.086 569.443 430.244L596.144 371.826C598.814 365.985 606.254 363.206 612.088 365.872L651.463 383.87C657.297 386.536 664.737 383.757 667.407 377.916L684.095 341.405C686.765 335.563 683.997 328.118 678.164 325.452L579.391 281.189C573.558 278.523 566.117 281.302 563.447 287.143L541.753 334.607L537.748 343.37L486.372 320.771C480.538 318.104 473.098 320.883 470.428 326.725L453.74 363.235C451.07 369.077 453.838 376.522 460.005 378.458L499.38 396.455C505.214 399.121 507.982 406.566 505.312 412.408L478.611 470.825C475.941 476.667 468.5 479.445 462.667 476.779L423.291 458.782C417.458 456.116 410.017 458.894 407.347 464.736L390.659 501.247C387.989 507.088 390.757 514.533 396.924 516.469L440.28 535.402C443.926 537.069 446.236 541.656 444.234 546.037L382.155 681.858C379.485 687.7 382.253 695.144 388.086 697.811L424.879 713.745C430.44 718.935 437.881 716.156 440.551 710.314ZM371.284 449.135C373.62 444.024 371.977 437.976 367.206 434.913C349.916 422.596 344.134 400.532 352.812 381.547C361.489 362.561 382.291 351.765 403.252 356.049C409.024 356.922 414.672 354.207 417.009 349.095L434.03 311.854C436.7 306.012 433.932 298.568 428.099 295.902L426.641 295.235C374.053 279.144 317.507 304.499 294.477 354.884C271.782 404.539 289.612 463.889 336.86 491.664C342.359 495.06 350.195 493.345 353.595 487.837L354.262 486.376L371.284 449.135ZM38.25 632.202C32.0435 635.004 29.2106 642.308 31.9647 648.41L48.6302 685.331C51.3842 691.432 58.7365 694.14 64.9431 691.338L113.641 669.357L173.797 642.204L222.654 620.151C229.126 616.664 232.136 608.903 229.647 602.117L208.127 554.016L181.434 494.88L159.755 446.851C157.001 440.75 149.648 438.042 143.442 440.844L105.884 457.796C99.6776 460.598 96.8448 467.903 99.5988 474.004L121.278 522.033L147.971 581.169L148.536 582.421L147.263 582.996L87.1069 610.149L38.25 632.202Z" fill="url(#paint0_radial)"/>
<path d="M634.77 133.893L635.608 135.709L635.652 135.689L635.695 135.667L634.77 133.893ZM650.288 137.692L651.912 136.526L651.912 136.526L650.288 137.692ZM577.028 118.79L578.653 117.624L578.653 117.624L577.028 118.79ZM580.155 57.8417L581.658 59.1618L581.692 59.123L581.724 59.0826L580.155 57.8417ZM581.008 41.2192L579.383 42.3859L579.383 42.3859L581.008 41.2192ZM555.218 5.30598L553.593 6.47259L553.593 6.47259L555.218 5.30598ZM537.084 2.31784L538.251 3.94235L538.251 3.94235L537.084 2.31784ZM535.678 3.3278L534.511 1.70328L534.404 1.78026L534.308 1.87065L535.678 3.3278ZM520.774 159.188L522.399 158.022L522.399 158.022L520.774 159.188ZM671.71 192.753L670.754 190.996L670.735 191.006L670.716 191.017L671.71 192.753ZM677.09 175.014L678.846 174.057L678.787 173.948L678.714 173.847L677.09 175.014ZM676.078 173.605L674.454 174.772L674.454 174.772L676.078 173.605ZM671.169 487.332L671.569 485.373L671.519 485.363L671.468 485.355L671.169 487.332ZM657.412 494.286L659.215 495.153L659.223 495.136L659.231 495.118L657.412 494.286ZM721.609 461.835L723.428 462.666L723.428 462.666L721.609 461.835ZM707.215 408.469L708.375 406.84L708.336 406.812L708.295 406.786L707.215 408.469ZM703.137 394.246L704.956 395.078L704.956 395.078L703.137 394.246ZM720.159 357.005L718.34 356.174L718.34 356.174L720.159 357.005ZM736.103 351.051L735.271 352.87L735.271 352.87L736.103 351.051ZM736.832 351.385L737.846 349.66L737.757 349.608L737.663 349.566L736.832 351.385ZM779.214 488.164L777.395 487.333L777.395 487.333L779.214 488.164ZM647.051 547.813L646.452 549.721L646.459 549.724L646.466 549.726L647.051 547.813ZM638.994 532.655L637.175 531.823L637.123 531.936L637.086 532.055L638.994 532.655ZM639.661 531.194L637.859 530.327L637.85 530.345L637.842 530.363L639.661 531.194ZM470.255 645.325L472.074 646.156L472.074 646.156L470.255 645.325ZM440.551 710.314L438.732 709.483L438.732 709.483L440.551 710.314ZM470.965 644.49L469.602 643.026L469.602 643.026L470.965 644.49ZM472.319 642.737L470.5 641.906L470.5 641.906L472.319 642.737ZM534.398 506.917L532.579 506.085L532.579 506.085L534.398 506.917ZM545.028 502.947L544.196 504.766L544.212 504.773L544.227 504.78L545.028 502.947ZM588.383 521.881L589.214 520.062L589.199 520.055L589.183 520.048L588.383 521.881ZM604.327 515.927L602.508 515.095L602.508 515.095L604.327 515.927ZM621.015 479.416L622.834 480.247L622.834 480.247L621.015 479.416ZM615.084 463.463L614.252 465.282L614.252 465.282L615.084 463.463ZM575.708 445.466L576.539 443.647L576.539 443.647L575.708 445.466ZM569.443 430.244L567.624 429.412L567.624 429.412L569.443 430.244ZM596.144 371.826L597.963 372.658L597.963 372.658L596.144 371.826ZM612.088 365.872L612.919 364.053L612.919 364.053L612.088 365.872ZM651.463 383.87L650.632 385.689L650.632 385.689L651.463 383.87ZM667.407 377.916L665.588 377.084L665.588 377.084L667.407 377.916ZM684.095 341.405L685.914 342.236L685.914 342.236L684.095 341.405ZM678.164 325.452L678.995 323.633L678.989 323.63L678.982 323.627L678.164 325.452ZM579.391 281.189L578.56 283.008L578.567 283.011L578.573 283.014L579.391 281.189ZM563.447 287.143L565.266 287.975L565.266 287.975L563.447 287.143ZM541.753 334.607L539.934 333.776L539.934 333.776L541.753 334.607ZM537.748 343.37L536.942 345.201L538.747 345.995L539.567 344.201L537.748 343.37ZM486.372 320.771L485.54 322.59L485.553 322.595L485.566 322.601L486.372 320.771ZM470.428 326.725L468.609 325.893L468.609 325.893L470.428 326.725ZM453.74 363.235L455.559 364.067L455.559 364.067L453.74 363.235ZM460.005 378.458L460.836 376.639L460.723 376.587L460.604 376.55L460.005 378.458ZM499.38 396.455L500.212 394.636L500.212 394.636L499.38 396.455ZM505.312 412.408L507.131 413.239L507.131 413.239L505.312 412.408ZM478.611 470.825L476.792 469.994L476.792 469.994L478.611 470.825ZM462.667 476.779L461.835 478.598L461.835 478.598L462.667 476.779ZM423.291 458.782L422.46 460.601L422.46 460.601L423.291 458.782ZM407.347 464.736L405.528 463.904L405.528 463.904L407.347 464.736ZM390.659 501.247L392.478 502.078L392.478 502.078L390.659 501.247ZM396.924 516.469L397.725 514.636L397.626 514.593L397.523 514.561L396.924 516.469ZM440.28 535.402L441.111 533.583L441.096 533.576L441.08 533.57L440.28 535.402ZM444.234 546.037L446.053 546.869L446.053 546.869L444.234 546.037ZM382.155 681.858L380.336 681.027L380.336 681.027L382.155 681.858ZM388.086 697.811L387.255 699.63L387.273 699.638L387.291 699.646L388.086 697.811ZM424.879 713.745L426.243 712.282L425.991 712.047L425.674 711.909L424.879 713.745ZM367.206 434.913L366.046 436.542L366.085 436.57L366.126 436.596L367.206 434.913ZM371.284 449.135L369.465 448.304L369.465 448.304L371.284 449.135ZM352.812 381.547L350.993 380.715L350.993 380.715L352.812 381.547ZM403.252 356.049L402.852 358.009L402.902 358.019L402.953 358.027L403.252 356.049ZM417.009 349.095L415.19 348.264L415.19 348.264L417.009 349.095ZM434.03 311.854L435.849 312.686L435.849 312.686L434.03 311.854ZM428.099 295.902L428.93 294.083L428.93 294.083L428.099 295.902ZM426.641 295.235L427.472 293.416L427.352 293.361L427.226 293.323L426.641 295.235ZM294.477 354.884L292.658 354.053L292.658 354.053L294.477 354.884ZM336.86 491.664L337.911 489.962L337.892 489.951L337.873 489.94L336.86 491.664ZM353.595 487.837L355.297 488.887L355.362 488.781L355.414 488.668L353.595 487.837ZM354.262 486.376L352.443 485.545L352.443 485.545L354.262 486.376ZM31.9647 648.41L30.1418 649.233L30.1418 649.233L31.9647 648.41ZM38.25 632.202L37.4272 630.379L37.4272 630.379L38.25 632.202ZM48.6302 685.331L50.4531 684.508L50.4531 684.508L48.6302 685.331ZM64.9431 691.338L64.1203 689.515L64.1203 689.515L64.9431 691.338ZM113.641 669.357L114.464 671.18L114.464 671.18L113.641 669.357ZM173.797 642.204L174.62 644.027L174.62 644.027L173.797 642.204ZM222.654 620.151L223.477 621.974L223.54 621.945L223.602 621.912L222.654 620.151ZM229.647 602.117L231.525 601.428L231.501 601.363L231.473 601.3L229.647 602.117ZM208.127 554.016L209.953 553.199L209.95 553.193L208.127 554.016ZM181.434 494.88L179.611 495.703L179.611 495.703L181.434 494.88ZM159.755 446.851L157.932 447.674L157.932 447.674L159.755 446.851ZM143.442 440.844L142.619 439.021L142.619 439.021L143.442 440.844ZM105.884 457.796L106.707 459.619L106.707 459.619L105.884 457.796ZM99.5988 474.004L97.7759 474.827L97.7759 474.827L99.5988 474.004ZM121.278 522.033L119.455 522.856L119.455 522.856L121.278 522.033ZM147.971 581.169L146.148 581.992L146.148 581.992L147.971 581.169ZM148.536 582.421L149.359 584.244L151.182 583.421L150.359 581.598L148.536 582.421ZM147.263 582.996L148.086 584.819L148.086 584.819L147.263 582.996ZM87.1069 610.149L87.9297 611.972L87.9297 611.972L87.1069 610.149ZM635.695 135.667C640.207 133.313 645.682 134.707 648.663 138.859L651.912 136.526C647.814 130.818 640.188 128.812 633.845 132.12L635.695 135.667ZM575.404 119.957C589.111 139.044 613.926 145.72 635.608 135.709L633.932 132.077C613.992 141.284 591.242 135.154 578.653 117.624L575.404 119.957ZM578.653 56.5215C562.788 74.5777 561.715 100.895 575.404 119.957L578.653 117.624C566.046 100.069 567.026 75.8143 581.658 59.1618L578.653 56.5215ZM579.383 42.3859C582.338 46.5005 582.015 52.2672 578.587 56.6007L581.724 59.0826C586.117 53.5297 586.757 45.7965 582.632 40.0526L579.383 42.3859ZM553.593 6.47259L579.383 42.3859L582.632 40.0526L556.842 4.13938L553.593 6.47259ZM538.251 3.94235C542.977 0.548438 550.19 1.73414 553.593 6.47259L556.842 4.13938C552.154 -2.38909 542.443 -3.99231 535.918 0.693334L538.251 3.94235ZM536.845 4.95231L538.251 3.94235L535.918 0.693332L534.511 1.70328L536.845 4.95231ZM522.399 158.022C488.089 110.246 494.516 44.7721 537.048 4.78494L534.308 1.87065C490.311 43.235 483.673 110.954 519.15 160.355L522.399 158.022ZM670.716 191.017C620.272 219.903 556.203 205.095 522.399 158.022L519.15 160.355C554.119 209.05 620.435 224.42 672.703 194.488L670.716 191.017ZM675.333 175.97C678.128 181.104 675.949 188.169 670.754 190.996L672.665 194.51C679.732 190.665 682.736 181.201 678.846 174.057L675.333 175.97ZM674.454 174.772L675.465 176.18L678.714 173.847L677.703 172.439L674.454 174.772ZM648.663 138.859L674.454 174.772L677.703 172.439L651.912 136.526L648.663 138.859ZM671.468 485.355C664.927 484.366 658.346 487.431 655.593 493.455L659.231 495.118C661.151 490.918 665.867 488.554 670.87 489.31L671.468 485.355ZM719.79 461.003C711.173 479.856 691.636 489.474 671.569 485.373L670.768 489.292C692.624 493.759 714.022 483.246 723.428 462.666L719.79 461.003ZM706.054 410.098C722.563 421.858 728.07 442.889 719.79 461.003L723.428 462.666C732.504 442.809 726.446 419.713 708.375 406.84L706.054 410.098ZM701.318 393.415C700.099 396.082 699.929 399.349 700.699 402.349C701.472 405.365 703.245 408.297 706.134 410.152L708.295 406.786C706.413 405.578 705.146 403.589 704.573 401.355C703.996 399.105 704.172 396.793 704.956 395.078L701.318 393.415ZM718.34 356.174L701.318 393.415L704.956 395.078L721.978 357.837L718.34 356.174ZM736.934 349.232C730.174 346.143 721.838 348.521 718.34 356.174L721.978 357.837C724.487 352.346 730.364 350.627 735.271 352.87L736.934 349.232ZM737.663 349.566L736.934 349.232L735.271 352.87L736.001 353.204L737.663 349.566ZM781.033 488.996C804.144 438.433 786 377.968 737.846 349.66L735.818 353.109C782.159 380.35 799.676 438.586 777.395 487.333L781.033 488.996ZM646.466 549.726C700.015 566.111 757.588 540.291 781.033 488.996L777.395 487.333C754.782 536.808 699.263 561.698 647.636 545.901L646.466 549.726ZM637.086 532.055C634.802 539.321 639.269 547.466 646.452 549.721L647.65 545.905C642.499 544.288 639.304 538.338 640.902 533.254L637.086 532.055ZM637.842 530.363L637.175 531.823L640.813 533.486L641.48 532.026L637.842 530.363ZM655.61 493.419L637.859 530.327L641.464 532.061L659.215 495.153L655.61 493.419ZM468.436 644.494L438.732 709.483L442.37 711.146L472.074 646.156L468.436 644.494ZM469.602 643.026C469.376 643.237 468.772 643.758 468.436 644.494L472.074 646.156C472.029 646.255 471.989 646.288 472.032 646.24C472.053 646.218 472.085 646.185 472.136 646.135C472.189 646.083 472.248 646.028 472.328 645.953L469.602 643.026ZM470.5 641.906C470.286 642.376 470.018 642.639 469.602 643.026L472.328 645.953C472.785 645.528 473.571 644.81 474.138 643.569L470.5 641.906ZM532.579 506.085L470.5 641.906L474.138 643.569L536.217 507.748L532.579 506.085ZM545.859 501.128C543.257 499.939 540.548 499.76 538.124 500.666C535.7 501.571 533.769 503.482 532.579 506.085L536.217 507.748C537.03 505.97 538.227 504.897 539.523 504.413C540.819 503.929 542.423 503.956 544.196 504.766L545.859 501.128ZM589.183 520.048L545.828 501.115L544.227 504.78L587.583 523.714L589.183 520.048ZM602.508 515.095C600.296 519.935 594.041 522.268 589.214 520.062L587.552 523.7C594.392 526.826 603.018 523.602 606.146 516.758L602.508 515.095ZM619.196 478.585L602.508 515.095L606.146 516.758L622.834 480.247L619.196 478.585ZM614.252 465.282C619.079 467.488 621.408 473.745 619.196 478.585L622.834 480.247C625.962 473.403 622.756 464.771 615.915 461.644L614.252 465.282ZM574.877 447.285L614.252 465.282L615.915 461.644L576.539 443.647L574.877 447.285ZM567.624 429.412C564.423 436.416 568.203 444.235 574.877 447.285L576.539 443.647C571.546 441.365 569.123 435.755 571.262 431.075L567.624 429.412ZM594.325 370.995L567.624 429.412L571.262 431.075L597.963 372.658L594.325 370.995ZM612.919 364.053C606.079 360.927 597.453 364.151 594.325 370.995L597.963 372.658C600.175 367.818 606.43 365.485 611.256 367.691L612.919 364.053ZM652.295 382.051L612.919 364.053L611.256 367.691L650.632 385.689L652.295 382.051ZM665.588 377.084C663.376 381.924 657.121 384.257 652.295 382.051L650.632 385.689C657.472 388.815 666.098 385.591 669.226 378.747L665.588 377.084ZM682.276 340.573L665.588 377.084L669.226 378.747L685.914 342.236L682.276 340.573ZM677.333 327.271C682.159 329.477 684.488 335.734 682.276 340.573L685.914 342.236C689.042 335.392 685.836 326.76 678.995 323.633L677.333 327.271ZM578.573 283.014L677.346 327.277L678.982 323.627L580.209 279.364L578.573 283.014ZM565.266 287.975C567.478 283.135 573.733 280.802 578.56 283.008L580.223 279.37C573.382 276.244 564.756 279.468 561.628 286.312L565.266 287.975ZM543.572 335.439L565.266 287.975L561.628 286.312L539.934 333.776L543.572 335.439ZM539.567 344.201L543.572 335.439L539.934 333.776L535.929 342.539L539.567 344.201ZM485.566 322.601L536.942 345.201L538.553 341.539L487.177 318.94L485.566 322.601ZM472.247 327.556C474.459 322.716 480.714 320.384 485.54 322.59L487.203 318.952C480.363 315.825 471.737 319.049 468.609 325.893L472.247 327.556ZM455.559 364.067L472.247 327.556L468.609 325.893L451.921 362.404L455.559 364.067ZM460.604 376.55C455.734 375.021 453.321 368.962 455.559 364.067L451.921 362.404C448.818 369.192 451.941 378.022 459.406 380.366L460.604 376.55ZM500.212 394.636L460.836 376.639L459.173 380.277L498.549 398.274L500.212 394.636ZM507.131 413.239C510.259 406.395 507.052 397.763 500.212 394.636L498.549 398.274C503.375 400.48 505.705 406.737 503.493 411.576L507.131 413.239ZM480.43 471.656L507.131 413.239L503.493 411.576L476.792 469.994L480.43 471.656ZM461.835 478.598C468.676 481.725 477.302 478.5 480.43 471.656L476.792 469.994C474.58 474.833 468.325 477.166 463.498 474.96L461.835 478.598ZM422.46 460.601L461.835 478.598L463.498 474.96L424.123 456.963L422.46 460.601ZM409.166 465.567C411.378 460.728 417.634 458.395 422.46 460.601L424.123 456.963C417.282 453.836 408.656 457.06 405.528 463.904L409.166 465.567ZM392.478 502.078L409.166 465.567L405.528 463.904L388.84 500.415L392.478 502.078ZM397.523 514.561C392.654 513.032 390.241 506.974 392.478 502.078L388.84 500.415C385.738 507.203 388.86 516.034 396.325 518.377L397.523 514.561ZM441.08 533.57L397.725 514.636L396.124 518.302L439.479 537.235L441.08 533.57ZM446.053 546.869C448.567 541.369 445.644 535.655 441.111 533.583L439.448 537.221C442.207 538.482 443.906 541.943 442.415 545.206L446.053 546.869ZM383.974 682.689L446.053 546.869L442.415 545.206L380.336 681.027L383.974 682.689ZM388.918 695.992C384.091 693.786 381.762 687.529 383.974 682.689L380.336 681.027C377.208 687.871 380.414 696.503 387.255 699.63L388.918 695.992ZM425.674 711.909L388.881 695.975L387.291 699.646L424.084 715.58L425.674 711.909ZM438.732 709.483C437.632 711.888 435.566 713.621 433.28 714.235C431.056 714.832 428.518 714.405 426.243 712.282L423.514 715.207C426.801 718.274 430.764 719.053 434.318 718.098C437.81 717.16 440.799 714.583 442.37 711.146L438.732 709.483ZM366.126 436.596C370.028 439.101 371.403 444.063 369.465 448.304L373.103 449.967C375.837 443.984 373.926 436.851 368.287 433.23L366.126 436.596ZM350.993 380.715C341.917 400.572 347.975 423.669 366.046 436.542L368.367 433.284C351.858 421.524 346.351 400.492 354.631 382.378L350.993 380.715ZM403.653 354.09C381.776 349.619 360.056 360.886 350.993 380.715L354.631 382.378C362.923 364.236 382.806 353.912 402.852 358.009L403.653 354.09ZM415.19 348.264C413.27 352.463 408.554 354.828 403.551 354.072L402.953 358.027C409.494 359.015 416.074 355.95 418.828 349.927L415.19 348.264ZM432.211 311.023L415.19 348.264L418.828 349.927L435.849 312.686L432.211 311.023ZM427.268 297.721C432.094 299.927 434.423 306.183 432.211 311.023L435.849 312.686C438.977 305.842 435.771 297.209 428.93 294.083L427.268 297.721ZM425.809 297.054L427.268 297.721L428.93 294.083L427.472 293.416L425.809 297.054ZM296.296 355.715C318.91 306.241 374.429 281.35 426.055 297.148L427.226 293.323C373.677 276.937 316.104 302.758 292.658 354.053L296.296 355.715ZM337.873 489.94C291.532 462.698 274.016 404.462 296.296 355.715L292.658 354.053C269.548 404.615 287.692 465.08 335.846 493.388L337.873 489.94ZM351.893 486.786C349.094 491.321 342.504 492.799 337.911 489.962L335.809 493.365C342.215 497.322 351.297 495.369 355.297 488.887L351.893 486.786ZM352.443 485.545L351.776 487.005L355.414 488.668L356.081 487.208L352.443 485.545ZM369.465 448.304L352.443 485.545L356.081 487.208L373.103 449.967L369.465 448.304ZM33.7876 647.587C31.5012 642.522 33.8435 636.385 39.0729 634.025L37.4272 630.379C30.2434 633.622 26.9201 642.095 30.1418 649.233L33.7876 647.587ZM50.4531 684.508L33.7876 647.587L30.1418 649.233L46.8073 686.154L50.4531 684.508ZM64.1203 689.515C58.891 691.876 52.7395 689.574 50.4531 684.508L46.8073 686.154C50.029 693.291 58.5821 696.404 65.7659 693.161L64.1203 689.515ZM112.818 667.534L64.1203 689.515L65.7659 693.161L114.464 671.18L112.818 667.534ZM172.974 640.381L112.818 667.534L114.464 671.18L174.62 644.027L172.974 640.381ZM221.831 618.328L172.974 640.381L174.62 644.027L223.477 621.974L221.831 618.328ZM227.77 602.805C229.907 608.633 227.324 615.363 221.705 618.39L223.602 621.912C230.927 617.966 234.365 609.173 231.525 601.428L227.77 602.805ZM206.302 554.833L227.822 602.934L231.473 601.3L209.953 553.199L206.302 554.833ZM179.611 495.703L206.304 554.839L209.95 553.193L183.257 494.057L179.611 495.703ZM157.932 447.674L179.611 495.703L183.257 494.057L161.578 446.028L157.932 447.674ZM144.265 442.666C149.494 440.306 155.646 442.608 157.932 447.674L161.578 446.028C158.356 438.891 149.803 435.778 142.619 439.021L144.265 442.666ZM106.707 459.619L144.265 442.666L142.619 439.021L105.061 455.973L106.707 459.619ZM101.422 473.181C99.1353 468.116 101.478 461.98 106.707 459.619L105.061 455.973C97.8775 459.216 94.5542 467.69 97.7759 474.827L101.422 473.181ZM123.101 521.21L101.422 473.181L97.7759 474.827L119.455 522.856L123.101 521.21ZM149.794 580.347L123.101 521.21L119.455 522.856L146.148 581.992L149.794 580.347ZM150.359 581.598L149.794 580.347L146.148 581.992L146.713 583.244L150.359 581.598ZM148.086 584.819L149.359 584.244L147.713 580.598L146.44 581.173L148.086 584.819ZM87.9297 611.972L148.086 584.819L146.44 581.173L86.2841 608.326L87.9297 611.972ZM39.0729 634.025L87.9297 611.972L86.2841 608.326L37.4272 630.379L39.0729 634.025Z" fill="black" mask="url(#path-3-inside-2)"/>
<defs>
<radialGradient id="paint0_radial" cx="0" cy="0" r="1" gradientUnits="userSpaceOnUse" gradientTransform="translate(712.5 521.243) rotate(-165.686) scale(750.293 793.87)">
<stop stop-color="#F5CCF7"/>
<stop offset="0.5625" stop-color="#F9D2B2"/>
<stop offset="1" stop-color="#FFDA57"/>
</radialGradient>
</defs>
</svg>
